{
  "accessors": [
    {
      "bufferView": 2,
      "componentType": 5126,
      "count": 18859,
      "max": [
        1.814423680305481,
        0.9088162183761597,
        1.274554967880249
      ],
      "min": [
        -1.845423936843872,
        -2.2961502075195313,
        -3.1207261085510254
      ],
      "type": "VEC3"
    },
    {
      "bufferView": 2,
      "byteOffset": 226308,
      "componentType": 5126,
      "count": 18859,
      "max": [
        0.999976396560669,
        0.9999345541000366,
        0.9998762607574463
      ],
      "min": [
        -0.9999780654907227,
        -0.9997075796127319,
        -0.9999982118606567
      ],
      "type": "VEC3"
    },
    {
      "bufferView": 1,
      "componentType": 5126,
      "count": 18859,
      "max": [
        0.9817216992378235,
        0.9952934980392456
      ],
      "min": [
        0.01279062032699585,
        0.012149577960371971
      ],
      "type": "VEC2"
    },
    {
      "bufferView": 0,
      "componentType": 5125,
      "count": 88752,
      "type": "SCALAR"
    }
  ],
  "asset": {
    "extras": {
      "author": "Smoon (https://sketchfab.com/Smoon.Vu)",
      "license": "CC-BY-4.0 (http://creativecommons.org/licenses/by/4.0/)",
      "source": "https://sketchfab.com/3d-models/dog-harvest-moon-back-to-nature-b41a0982525143e78a6c047446de5a39",
      "title": "Dog harvest moon Back to nature"
    },
    "generator": "Sketchfab-12.67.0",
    "version": "2.0"
  },
  "bufferViews": [
    {
      "buffer": 0,
      "byteLength": 355008,
      "name": "floatBufferViews",
      "target": 34963
    },
    {
      "buffer": 0,
      "byteLength": 150872,
      "byteOffset": 355008,
      "byteStride": 8,
      "name": "floatBufferViews",
      "target": 34962
    },
    {
      "buffer": 0,
      "byteLength": 452616,
      "byteOffset": 505880,
      "byteStride": 12,
      "name": "floatBufferViews",
      "target": 34962
    }
  ],
  "buffers": [
    {
      "byteLength": 958496,
      "uri": "scene.bin"
    }
  ],
  "images": [
    {
      "uri": "textures/Dog_havest_moon_map_baseColor.png"
    },
    {
      "uri": "textures/Dog_havest_moon_map_metallicRoughness.png"
    }
  ],
  "materials": [
    {
      "doubleSided": true,
      "name": "Dog_havest_moon_map",
      "occlusionTexture": {
        "index": 1,
        "strength": 0.0
      },
      "pbrMetallicRoughness": {
        "baseColorTexture": {
          "index": 0
        },
        "metallicFactor": 0.0,
        "metallicRoughnessTexture": {
          "index": 1
        }
      }
    }
  ],
  "meshes": [
    {
      "name": "Object_0",
      "primitives": [
        {
          "attributes": {
            "NORMAL": 1,
            "POSITION": 0,
            "TEXCOORD_0": 2
          },
          "indices": 3,
          "material": 0,
          "mode": 4
        }
      ]
    }
  ],
  "nodes": [
    {
      "children": [
        1
      ],
      "matrix": [
        1.0,
        0.0,
        0.0,
        0.0,
        0.0,
        2.220446049250313e-16,
        -1.0,
        0.0,
        0.0,
        1.0,
        2.220446049250313e-16,
        0.0,
        0.0,
        0.0,
        0.0,
        1.0
      ],
      "name": "Sketchfab_model"
    },
    {
      "children": [
        2
      ],
      "name": "root"
    },
    {
      "children": [
        3
      ],
      "matrix": [
        1.0,
        0.0,
        0.0,
        0.0,
        0.0,
        2.220446049250313e-16,
        1.0,
        0.0,
        0.0,
        -1.0,
        2.220446049250313e-16,
        0.0,
        0.0,
        0.0,
        0.0,
        1.0
      ],
      "name": "GLTF_SceneRootNode"
    },
    {
      "children": [
        4
      ],
      "matrix": [
        1.0265222787857056,
        0.0,
        0.0,
        0.0,
        0.0,
        0.939054548740387,
        0.0,
        0.0,
        0.0,
        0.0,
        0.8966646194458008,
        0.0,
        0.0,
        0.0,
        0.0,
        1.0
      ],
      "name": "dau.003_2"
    },
    {
      "mesh": 0,
      "name": "Object_4"
    }
  ],
  "samplers": [
    {
      "magFilter": 9729,
      "minFilter": 9987,
      "wrapS": 10497,
      "wrapT": 10497
    }
  ],
  "scene": 0,
  "scenes": [
    {
      "name": "Sketchfab_Scene",
      "nodes": [
        0
      ]
    }
  ],
  "textures": [
    {
      "sampler": 0,
      "source": 0
    },
    {
      "sampler": 0,
      "source": 1
    }
  ]
}
